# xmcd
#
# Track frame offsets:
#	150
#	12012
#	23087
#	34940
#	47247
#	63582
#	80140
#	93915
#	111837
#	126495
#	139680
#	154675
#	167172
#	180280
#	195837
#
# Disc length: 2791 seconds
#
# Revision: 1
# Processed by: cddbd v1.5.1PL0 Copyright (c) Steve Scherf et al.
# Submitted via: audiograbber 1.83.01
#
DISCID=bf0ae50f
DTITLE=Various Artist - The Big Country CD 2
DYEAR=1900
DGENRE=Country
TTITLE0=Crystal Gayle - Don't it make my brown eyes blue
TTITLE1=George Jones - She's my rock
TTITLE2=Barbara Fairchild - Cheatin' is
TTITLE3=Janie Fricky - Easy to please
TTITLE4=Mark Gray and Tammy Whynette - Sometimes when we touch
TTITLE5=David Allan Coe - Mona Lisa lost her smile
TTITLE6=Johnny Cash - It ain't me baby
TTITLE7=Johnny Duncan - Slow dancing
TTITLE8=rodney Crowell - She 's crazy for leavin'
TTITLE9=David Youston - Almost persuaded
TTITLE10=The O'kanes - One true love
TTITLE11=Charly Macclain - The very best is you
TTITLE12=Larry Gatlin and The Gatlin Brothers - Houston
TTITLE13=Mike Reid - As simple as that
TTITLE14=Johnny Cash, Willy Nelson, Waylon Jennings and Kris Kristofferson - High
TTITLE14=wayman
EXTD=
EXTT0=
EXTT1=
EXTT2=
EXTT3=
EXTT4=
EXTT5=
EXTT6=
EXTT7=
EXTT8=
EXTT9=
EXTT10=
EXTT11=
EXTT12=
EXTT13=
EXTT14=
PLAYORDER=
